<?xml version="1.0" encoding="UTF-8" standalone="no"?>
<!-- Created with Inkscape (http://www.inkscape.org/) -->

<svg
   width="100"
   height="100"
   viewBox="0 0 100 100"
   version="1.1"
   id="svg1"
   xml:space="preserve"
   sodipodi:docname="animation3d_backup.svg"
   inkscape:version="1.4 (e7c3feb100, 2024-10-09)"
   xmlns:inkscape="http://www.inkscape.org/namespaces/inkscape"
   xmlns:sodipodi="http://sodipodi.sourceforge.net/DTD/sodipodi-0.dtd"
   xmlns="http://www.w3.org/2000/svg"
   xmlns:svg="http://www.w3.org/2000/svg"><sodipodi:namedview
     id="namedview1"
     pagecolor="#ffffff"
     bordercolor="#000000"
     borderopacity="0.25"
     inkscape:showpageshadow="2"
     inkscape:pageopacity="0.0"
     inkscape:pagecheckerboard="0"
     inkscape:deskcolor="#d1d1d1"
     inkscape:zoom="5.6568543"
     inkscape:cx="-37.918601"
     inkscape:cy="83.085047"
     inkscape:window-width="2540"
     inkscape:window-height="1381"
     inkscape:window-x="0"
     inkscape:window-y="0"
     inkscape:window-maximized="1"
     inkscape:current-layer="svg1"
     showguides="true"
     showgrid="true"><sodipodi:guide
       position="87.946406,93.547651"
       orientation="0.26647341,-0.96384227"
       id="guide44"
       inkscape:locked="false" /><sodipodi:guide
       position="21.990193,0.34233968"
       orientation="-0.99999999,0.00010505947"
       id="guide45"
       inkscape:locked="false" /><sodipodi:guide
       position="0,100"
       orientation="0,100"
       id="guide53"
       inkscape:locked="false" /><sodipodi:guide
       position="100,100"
       orientation="100,0"
       id="guide54"
       inkscape:locked="false" /><sodipodi:guide
       position="100,0"
       orientation="0,-100"
       id="guide55"
       inkscape:locked="false" /><sodipodi:guide
       position="0,0"
       orientation="-100,0"
       id="guide56"
       inkscape:locked="false" /><inkscape:grid
       id="grid57"
       units="px"
       originx="0"
       originy="0"
       spacingx="1"
       spacingy="1"
       empcolor="#0099e5"
       empopacity="0.30196078"
       color="#0099e5"
       opacity="0.14901961"
       empspacing="1"
       enabled="true"
       visible="true" /><sodipodi:guide
       position="105.34375,21.4375"
       orientation="0.99995649,0.0093279542"
       id="guide3"
       inkscape:locked="false" /><sodipodi:guide
       position="87.029541,91.125"
       orientation="1,0"
       id="guide4"
       inkscape:locked="false" /><sodipodi:guide
       position="10.625,94"
       orientation="0,-1"
       id="guide6"
       inkscape:locked="false" /><sodipodi:guide
       position="12.9375,-0.68749991"
       orientation="1,0"
       id="guide7"
       inkscape:locked="false" /><sodipodi:guide
       position="78.120117,86.910645"
       orientation="1,0"
       id="guide8"
       inkscape:locked="false" /></sodipodi:namedview><defs
     id="defs1"><inkscape:path-effect
       effect="fillet_chamfer"
       id="path-effect6"
       is_visible="true"
       lpeversion="1"
       nodesatellites_param="F,0,0,1,0,1.25,0,1 @ F,0,0,1,0,1.25,0,1 @ F,0,0,1,0,1.25,0,1 @ F,0,0,1,0,1.25,0,1"
       radius="0"
       unit="px"
       method="auto"
       mode="F"
       chamfer_steps="1"
       flexible="false"
       use_knot_distance="true"
       apply_no_radius="true"
       apply_with_radius="true"
       only_selected="false"
       hide_knots="false" /><inkscape:path-effect
       effect="fillet_chamfer"
       id="path-effect4"
       is_visible="true"
       lpeversion="1"
       nodesatellites_param="F,0,0,1,0,1.25,0,1 @ F,0,0,1,0,1.25,0,1 @ F,0,0,1,0,1.25,0,1 @ F,0,0,1,0,1.25,0,1"
       radius="0"
       unit="px"
       method="auto"
       mode="F"
       chamfer_steps="1"
       flexible="false"
       use_knot_distance="true"
       apply_no_radius="true"
       apply_with_radius="true"
       only_selected="false"
       hide_knots="false" /></defs><g
     id="layer1"><path
       d="M 1, 5 C 0.5,5.5 0,6 0,7 L 0, 10 C 0, 10 0, 10 0, 10 L 0, 90 C 0, 90 0, 90 0,90 L 0,98 C 0 , 99 0,100 2, 100 L 10, 100 C 10,100 10,100 10, 100 L 90, 100 C 90, 100 90, 100 90,100 L 98,100 C 99, 100 100,100 100, 98 L 100, 90 C 100, 90 100, 90 100, 90 L 100, 10 C 100, 10 100, 10 100, 10 L 100, 7 C 100,6 99.5, 5.5 99,5 L 94, 0.5 C 93.5,0.15 93,0 92,0 L 8, 0 C 7,0 6.5,0.15 6,0.5 Z"
       id="path0"
       style="display:inline;fill:#cccccc;stroke-width:0.833333" /><path
       style="display:inline;opacity:1;fill:#e9afaf;stroke-width:0.918642"
       d="M 13, 30 C 13,30 13,30 13,30 L 13, 35 C 13, 35 13, 35 13, 35 L 13, 92 C 13, 93 13.5,93.5 14,94 L 21, 99 C 22, 100 23,99.71 23,99.71 L 30.125, 97.625 C 30.125, 97.625 30.125, 97.625 30.125, 97.625 L 78.875, 83.375 C 78.875, 83.375 78.875, 83.375 78.875, 83.375 L 86, 81.29 C 86, 81.29 87, 81 87,80 L 87, 74 C 87, 74 87, 74 87, 74 L 87, 18.182 C 87, 18.182 87, 18.182 87, 18.182 L 87, 8 C 87,7 86.5,6.5 86,6 L 79, 1 C 78, 0 77,0.29 77,0.29 L 14, 17.71 C 13, 18 13, 19 13,20 Z"
       id="path1" /><path
       style="display:none;opacity:1;fill:#00ff00;stroke-width:0.918642"
       d="M 13,7 V 18.182 74 81 l 8.125,2.375 48.75,14.25 L 78,100 87,93 V 35 30 18.5 L 22,0 Z"
       id="path5" /></g><g
     inkscape:groupmode="layer"
     id="layer2"
     inkscape:label="Layer 2"><path
       d="m 22,28.25 v 70.5 a 0.9369233,0.9369233 36.852976 0 0 1.199793,0.899291 L 85.800207,81.350709 A 1.6676925,1.6676925 126.85298 0 0 87,79.75 V 10.25 A 0.9508899,0.9508899 37.260681 0 0 85.795337,9.3335989 L 23.204663,26.666401 A 1.6431976,1.6431976 127.26068 0 0 22,28.25 Z"
       id="path3"
       sodipodi:nodetypes="ccccc"
       inkscape:path-effect="#path-effect4"
       inkscape:original-d="M 23,26.7 C 22.5,27 22, 27.5 22,28 L 22, 100 L 87, 91 L 87, 10 C 87,9 86.5,9.5 86,9.3 Z"
       style="display:inline"
       inkscape:label="path1-frame" /><path
       d="m 0,7.25 v 91.5 A 1.25,1.25 45 0 0 1.25,100 h 97.5 A 1.25,1.25 135 0 0 100,98.75 V 7.25 A 1.25,1.25 45 0 0 98.75,6 H 1.25 A 1.25,1.25 135 0 0 0,7.25 Z"
       id="path4"
       sodipodi:nodetypes="ccccc"
       inkscape:path-effect="#path-effect6"
       inkscape:original-d="M 0.5,5.5 C 0,8 0,9 0,10 v 90 H 100 V 10 c 0,-1 0,-2 -0.5,-4.5 z"
       style="display:none;fill:#ccffaa"
       inkscape:label="path0-frame" /></g></svg>
