<?xml version="1.0" encoding="UTF-8" standalone="no"?>
<!-- Created with Inkscape (http://www.inkscape.org/) -->

<svg
   width="100"
   height="100"
   viewBox="0 0 100 100"
   version="1.1"
   id="svg1"
   xml:space="preserve"
   sodipodi:docname="animation3d_backup.svg"
   inkscape:version="1.4 (e7c3feb100, 2024-10-09)"
   xmlns:inkscape="http://www.inkscape.org/namespaces/inkscape"
   xmlns:sodipodi="http://sodipodi.sourceforge.net/DTD/sodipodi-0.dtd"
   xmlns="http://www.w3.org/2000/svg"
   xmlns:svg="http://www.w3.org/2000/svg"><sodipodi:namedview
     id="namedview1"
     pagecolor="#ffffff"
     bordercolor="#000000"
     borderopacity="0.25"
     inkscape:showpageshadow="2"
     inkscape:pageopacity="0.0"
     inkscape:pagecheckerboard="0"
     inkscape:deskcolor="#d1d1d1"
     showgrid="true"
     showguides="true"
     inkscape:zoom="17.380685"
     inkscape:cx="65.446213"
     inkscape:cy="71.4011"
     inkscape:window-width="2540"
     inkscape:window-height="1381"
     inkscape:window-x="0"
     inkscape:window-y="0"
     inkscape:window-maximized="1"
     inkscape:current-layer="svg1"><inkscape:grid
       id="grid1"
       units="px"
       originx="0"
       originy="0"
       spacingx="1"
       spacingy="1"
       empcolor="#0099e5"
       empopacity="0.30196078"
       color="#0099e5"
       opacity="0.14901961"
       empspacing="1"
       enabled="true"
       visible="true" /><sodipodi:guide
       position="86.666163,93.46228"
       orientation="0.58238402,0.81291381"
       id="guide1"
       inkscape:locked="false" /><sodipodi:guide
       position="56.959781,84.695655"
       orientation="-0.26679186,0.96375417"
       id="guide2"
       inkscape:locked="false" /><sodipodi:guide
       position="22.213181,-3.8242473"
       orientation="1,0"
       id="guide3"
       inkscape:locked="false" /><sodipodi:guide
       position="77.888635,51.523954"
       orientation="1,0"
       id="guide4"
       inkscape:locked="false" /><sodipodi:guide
       position="14.317258,6.8169082"
       orientation="0,-1"
       id="guide5"
       inkscape:locked="false" /><sodipodi:guide
       position="87.266413,92.995098"
       orientation="0,-1"
       id="guide6"
       inkscape:locked="false" /><sodipodi:guide
       position="85.966121,17.763671"
       orientation="0.2674726,-0.96356547"
       id="guide7"
       inkscape:locked="false" /><sodipodi:guide
       position="88.476404,81.489015"
       orientation="0,-1"
       id="guide8"
       inkscape:locked="false" /></sodipodi:namedview><defs
     id="defs1" /><g
     id="layer1"><path
       d="M 1, 5 C 0.5,5.5 0,6 0,7 L 0, 10 C 0, 10 0, 10 0, 10 L 0, 90 C 0, 90 0, 90 0,90 L 0,98 C 0 , 99 0,100 2, 100 L 10, 100 C 10,100 10,100 10, 100 L 90, 100 C 90, 100 90, 100 90,100 L 98,100 C 99, 100 100,100 100, 98 L 100, 90 C 100, 90 100, 90 100, 90 L 100, 10 C 100, 10 100, 10 100, 10 L 100, 7 C 100,6 99.5, 5.5 99,5 L 94, 0.5 C 93.5,0.15 93,0 92,0 L 8, 0 C 7,0 6.5,0.15 6,0.5 Z"
       id="path0"
       style="display:inline;fill:#cccccc;stroke-width:0.833333" /><path
       style="display:inline;opacity:1;fill:#e9afaf;stroke-width:0.918642"
       d="M 13, 30 C 13,30 13,30 13,30 L 13, 35 C 13, 35 13, 35 13, 35 L 13, 92 C 13, 93 13.5,93.5 14,94 L 21, 99 C 22, 100 23,99.7 23,99.7 L 30.1, 97.6 C 30.1, 97.6 30.1, 97.6 30.1, 97.6 L 78.9, 84 C 78.9, 84 78.9, 84 78.9, 84 L 86, 82.2 C 86,82.2 87,82 87,80.8 L 87, 74 C 87, 74 87, 74 87, 74 L 87, 18.2 C 87, 18.2 87, 18.2 87, 18.2 L 87, 7 C 87,6.8 86.7,6.5 86,6 L 79, 1 C 78, 0 77,0.3 77,0.3 L 14, 17.7 C 13, 18 13, 19 13,20 Z"
       id="path1" /><path
       style="display:none;opacity:1;fill:#00ff00;stroke-width:0.918642"
       d="M 13,7 V 18.182 74 81 l 8.125,2.375 48.75,14.25 L 78,100 87,93 V 35 30 18.5 L 22,0 Z"
       id="path5"
       sodipodi:insensitive="true" /></g><g
     id="layer2"><path
       d="M 23,24.8 C 22.5,24.9 22, 25 22,26 L 22, 100 L 87, 82.2 L 87, 7 C 87,7 87,7 87,7 Z"
       id="path3"
       style="display:inline"
       inkscape:label="frame1" /><path
       d="M 0.27297551,6.7291562 C 0.12938487,7.5898475 0.06132581,8.223944 0.02906719,8.7506393 -0.01312594,9.439538 0,10.559644 0,11.25 v 87.5 A 1.25,1.25 45 0 0 1.25,100 h 97.5 A 1.25,1.25 135 0 0 100,98.75 V 10 c 0,-1 0,-2 -0.5,-4.5 H 1.75 C 1.0596441,5.5 0.3865738,6.0482409 0.27297551,6.7291562 Z"
       id="path4"
       style="display:none;fill:#ccffaa" /></g></svg>
