<?xml version="1.0" encoding="UTF-8" standalone="no"?>
<!-- Created with Inkscape (http://www.inkscape.org/) -->

<svg
   width="100"
   height="100"
   viewBox="0 0 100 100"
   version="1.1"
   id="svg1"
   xml:space="preserve"
   sodipodi:docname="animation3d_backup.svg"
   inkscape:version="1.4 (e7c3feb100, 2024-10-09)"
   xmlns:inkscape="http://www.inkscape.org/namespaces/inkscape"
   xmlns:sodipodi="http://sodipodi.sourceforge.net/DTD/sodipodi-0.dtd"
   xmlns="http://www.w3.org/2000/svg"
   xmlns:svg="http://www.w3.org/2000/svg"><sodipodi:namedview
     id="namedview1"
     pagecolor="#ffffff"
     bordercolor="#000000"
     borderopacity="0.25"
     inkscape:showpageshadow="2"
     inkscape:pageopacity="0.0"
     inkscape:pagecheckerboard="0"
     inkscape:deskcolor="#d1d1d1"
     inkscape:zoom="5.6568543"
     inkscape:cx="-37.918601"
     inkscape:cy="83.085047"
     inkscape:window-width="2540"
     inkscape:window-height="1381"
     inkscape:window-x="0"
     inkscape:window-y="0"
     inkscape:window-maximized="1"
     inkscape:current-layer="svg1"
     showguides="true"
     showgrid="true"><sodipodi:guide
       position="6.46875,80.4375"
       orientation="-0.27848067,-0.96044184"
       id="guide44"
       inkscape:locked="false" /><sodipodi:guide
       position="23.001543,0.29404069"
       orientation="-0.28271292,0.95920457"
       id="guide45"
       inkscape:locked="false" /><sodipodi:guide
       position="0,100"
       orientation="0,100"
       id="guide53"
       inkscape:locked="false" /><sodipodi:guide
       position="100,100"
       orientation="100,0"
       id="guide54"
       inkscape:locked="false" /><sodipodi:guide
       position="100,0"
       orientation="0,-100"
       id="guide55"
       inkscape:locked="false" /><sodipodi:guide
       position="0,0"
       orientation="-100,0"
       id="guide56"
       inkscape:locked="false" /><inkscape:grid
       id="grid57"
       units="px"
       originx="0"
       originy="0"
       spacingx="1"
       spacingy="1"
       empcolor="#0099e5"
       empopacity="0.30196078"
       color="#0099e5"
       opacity="0.14901961"
       empspacing="1"
       enabled="true"
       visible="true" /></sodipodi:namedview><defs
     id="defs1" /><g
     id="layer1"><path
       d="M 1, 5 C 0.5,5.5 0,6 0,7 L 0, 10 C 0, 10 0, 10 0, 10 L 0, 90 C 0, 90 0, 90 0,90 L 0,98 C 0 , 99 0,100 2, 100 L 10, 100 C 10,100 10,100 10, 100 L 90, 100 C 90, 100 90, 100 90,100 L 98,100 C 99, 100 100,100 100, 98 L 100, 90 C 100, 90 100, 90 100, 90 L 100, 10 C 100, 10 100, 10 100, 10 L 100, 4 C 100,3 99.5, 2.85 99,2.7 L 94, 0.3 C 93.5,0.15 93,0 92,0 L 8, 0 C 7,0 6.5,0.15 6,0.3 Z"
       id="path0"
       style="display:inline;fill:#cccccc;stroke-width:0.833333" /><path
       style="display:inline;opacity:1;fill:#e9afaf;stroke-width:0.918642"
       d="M 13, 30 C 13,30 13,30 13,30 L 13, 35 C 13, 35 13, 35 13, 35 L 13, 90.5 C 13, 91 13.5,91.5 14,92 L 21, 99 C 22, 100 23,99.71 23,99.71 L 30.125, 97.625 C 30.125, 97.625 30.125, 97.625 30.125, 97.625 L 78.875, 83.375 C 78.875, 83.375 78.875, 83.375 78.875, 83.375 L 86, 81.29 C 86, 81.29 87, 81 87,80 L 87, 74 C 87, 74 87, 74 87, 74 L 87, 18.182 C 87, 18.182 87, 18.182 87, 18.182 L 87, 9.5 C 87, 9 86.5, 8.5 86,8 L 79, 1 C 78, 0 77,0.29 77,0.29 L 14, 17.71 C 13, 18 13, 19 13,20 Z"
       id="path1" /><path
       style="display:none;opacity:1;fill:#e9afaf;stroke-width:0.918642"
       d="M 13,7 V 18.182 74 81 l 8.125,2.375 48.75,14.25 L 78,100 87,93 V 35 30 18.5 L 22,0 Z"
       id="path5" /><path
       d="M 23, 17.71 L 30.125, 97.625 C 30.125, 97.625 30.125, 97.625 30.125, 97.625 L 78.875, 83.375 C 78.875, 83.375 78.875, 83.375 78.875, 83.375 L 86, 81.29 C 86, 81.29 87, 81 87,80 L 87, 74 C 87, 74 87, 74 87, 74 L 87, 18.182 C 87, 18.182 87, 18.182 87, 18.182 L 87, 9.5 C 87, 9 86.5, 8.5 86,8 L 79, 1 C 78, 0 77,0.29 77,0.29 Z"
       id="path2"
       style="stroke-width:0.851183"
       sodipodi:nodetypes="ccccc" /></g></svg>
