<?xml version="1.0" encoding="UTF-8" standalone="no"?>
<!-- Created with Inkscape (http://www.inkscape.org/) -->

<svg
   width="100"
   height="100"
   viewBox="0 0 100 100"
   version="1.1"
   id="svg1"
   xml:space="preserve"
   sodipodi:docname="animation3d_backup.svg"
   inkscape:version="1.4 (e7c3feb100, 2024-10-09)"
   xmlns:inkscape="http://www.inkscape.org/namespaces/inkscape"
   xmlns:sodipodi="http://sodipodi.sourceforge.net/DTD/sodipodi-0.dtd"
   xmlns="http://www.w3.org/2000/svg"
   xmlns:svg="http://www.w3.org/2000/svg"><sodipodi:namedview
     id="namedview1"
     pagecolor="#ffffff"
     bordercolor="#000000"
     borderopacity="0.25"
     inkscape:showpageshadow="2"
     inkscape:pageopacity="0.0"
     inkscape:pagecheckerboard="0"
     inkscape:deskcolor="#d1d1d1"
     showgrid="true"
     showguides="true"
     inkscape:zoom="32"
     inkscape:cx="21.359375"
     inkscape:cy="85.5"
     inkscape:window-width="2540"
     inkscape:window-height="1381"
     inkscape:window-x="0"
     inkscape:window-y="0"
     inkscape:window-maximized="1"
     inkscape:current-layer="layer1"><inkscape:grid
       id="grid1"
       units="px"
       originx="0"
       originy="0"
       spacingx="1"
       spacingy="1"
       empcolor="#0099e5"
       empopacity="0.30196078"
       color="#0099e5"
       opacity="0.14901961"
       empspacing="1"
       enabled="true"
       visible="true" /><sodipodi:guide
       position="13.84375,94.75"
       orientation="-0.25995083,-0.96562186"
       id="guide1"
       inkscape:locked="false" /><sodipodi:guide
       position="23.197103,75.247512"
       orientation="0.72430609,-0.68947856"
       id="guide2"
       inkscape:locked="false" /><sodipodi:guide
       position="87.266413,92.995098"
       orientation="0,-1"
       id="guide6"
       inkscape:locked="false" /><sodipodi:guide
       position="85.966121,17.763671"
       orientation="0.2674726,-0.96356547"
       id="guide7"
       inkscape:locked="false" /><sodipodi:guide
       position="52.94462,6.8386818"
       orientation="0,-1"
       id="guide9"
       inkscape:locked="false" /><sodipodi:guide
       position="21.004379,17.756032"
       orientation="0.27944719,0.96016106"
       id="guide15"
       inkscape:locked="false" /><sodipodi:guide
       position="0.15625,94.992188"
       orientation="1,0"
       id="guide16"
       inkscape:locked="false" /><sodipodi:guide
       position="89.5625,84.40625"
       orientation="0.69707838,-0.71699493"
       id="guide11"
       inkscape:locked="false" /><sodipodi:guide
       position="15.407194,94.998549"
       orientation="-0.038658518,-0.99925248"
       id="guide8"
       inkscape:locked="false" /><sodipodi:guide
       position="11.91033,94.663554"
       orientation="0.52265391,-0.85254495"
       id="guide10"
       inkscape:locked="false" /><sodipodi:guide
       position="-13.788582,69.240855"
       orientation="0.69589306,-0.71814543"
       id="guide12"
       inkscape:locked="false" /></sodipodi:namedview><defs
     id="defs1" /><g
     id="layer1"
     style="display:inline"><g
       id="g22"
       transform="matrix(1.6419874,-5.8976195,-5.8976195,-1.6419874,641.36425,406.48431)"
       style="display:none"
       inkscape:transform-center-x="2.1171991"
       inkscape:transform-center-y="-3.0670821"><path
         style="fill:none;stroke:#0000ff;stroke-width:0.00552427;stroke-linecap:square;stroke-linejoin:miter;stroke-miterlimit:4;stroke-dasharray:none;stroke-opacity:0.5"
         d="m 24.003906,101 v 1.00391"
         id="path19" /><path
         style="fill:none;stroke:#ff0000;stroke-width:0.00552427;stroke-linecap:butt;stroke-linejoin:miter;stroke-miterlimit:4;stroke-dasharray:none;stroke-opacity:0.5"
         d="m 24.003906,102.00391 c 0.554442,0 1.003906,-0.44947 1.003906,-1.00391"
         id="path20" /><path
         style="fill:none;stroke:#ff0000;stroke-width:0.00552427;stroke-linecap:square;stroke-linejoin:miter;stroke-miterlimit:4;stroke-dasharray:none;stroke-opacity:0.5"
         d="m 24.003906,101 h 1.003906"
         id="path21" /><g
         x="0"
         y="0"
         id="g19"
         transform="matrix(0.00552427,0,0,0.00552427,24.162121,101.95971)"><rect
           style="fill:#333333;fill-opacity:0.5;stroke-width:0"
           x="-18.879995"
           y="-7.46"
           width="43.759991"
           height="13.46"
           id="rect19" /><text
           xml:space="preserve"
           style="text-align:start;writing-mode:lr-tb;direction:ltr;text-anchor:start;opacity:0.68;fill:#ffd5d5"
           x="2"
           y="2"
           id="text19"><tspan
             sodipodi:role="line"
             style="font-style:normal;font-weight:normal;font-size:10px;line-height:125%;text-align:center;letter-spacing:0;word-spacing:0;text-anchor:middle;fill:#ffffff;fill-opacity:1;stroke:none"
             id="tspan19"
             x="2"
             y="2">0.27 mm</tspan></text></g><g
         x="0"
         y="0"
         id="g21"
         transform="matrix(0.00552427,0,0,0.00552427,24.705793,101.72092)"><rect
           style="fill:#337f33;fill-opacity:0.5;stroke-width:0"
           x="-15.464994"
           y="-7.46"
           width="36.929989"
           height="13.46"
           id="rect21" /><text
           xml:space="preserve"
           style="text-align:start;writing-mode:lr-tb;direction:ltr;text-anchor:start;opacity:0.68;fill:#ffd5d5"
           x="2"
           y="2"
           id="text21"><tspan
             sodipodi:role="line"
             style="font-style:normal;font-weight:normal;font-size:10px;line-height:125%;text-align:center;letter-spacing:0;word-spacing:0;text-anchor:middle;fill:#ffffff;fill-opacity:1;stroke:none"
             id="tspan21"
             x="2"
             y="2">90.00 °</tspan></text></g></g><path
       d="M 0.5,4.4 C 0.16666667,4.8 0,5.3333333 0,6 v 4 0 80 0 8 c 0,1.333333 0.66666667,2 2,2 h 8 v 0 h 80 v 0 h 8 c 1.333333,0 2,-0.666667 2,-2 V 90 90 10 10 6 C 100,5.3333333 99.833333,4.8 99.5,4.4 l -3,-3.9 C 96.233333,0.16666667 95.733333,0 95,0 H 5 C 4.2666667,0 3.7666667,0.16666667 3.5,0.5 Z"
       id="path0"
       style="display:inline;fill:#cccccc;stroke-width:0.833333"
       sodipodi:nodetypes="csccccssccccssccccsccsscc" /><path
       style="display:none;opacity:1;fill:#00ff00;stroke-width:0.918642"
       d="M 13.45,6.4 Q 13,6.8 13,7.2 v 11 q 0,0 0,0 V 74 q 0,0 0,0 v 6.8 q 0.08,1.2 1,1.4 l 7.1,1.8 q 0,0 0,0 l 48.8,13.6 q 0,0 0,0 l 7.1,2.1 q 1,0.2 2,-0.7 l 7.5,-5.35 Q 87,93 87,92 V 35 q 0,0 0,0 v -5 q 0,0 0,0 V 19 q 0,-1 -1.2,-1.26 L 23,0.3 Q 22,0.1 21,1 Z"
       id="path5" /><path
       style="display:inline;opacity:0.68;fill:#e9afaf;stroke-width:0.011;stroke:#000000;stroke-opacity:1;stroke-dasharray:none"
       d="m 13,30 q 0,0 0,0 v 5 q 0,0 0,0 v 57 q 0,1 0.5,1.64 L 21,99 q 1,0.9 2,0.7 l 7.1,-2.1 q 0,0 0,0 L 78.9,84 q 0,0 0,0 L 86,82.2 Q 86.92,82 87,80.8 V 74 q 0,0 0,0 V 18.2 q 0,0 0,0 V 7.2 Q 87,6.8 86.55,6.4 L 79,1 Q 78,0.1 77,0.3 L 14.2,17.74 Q 13,18 13,19 Z"
       id="path1" /><path
       style="display:inline;opacity:1;fill:#0000ff;stroke-width:0.918642"
       d="M 13.45, 4.4 Q 13,4.8 13,5.2 L 13, 18.2 Q 13, 18.2 13, 18.2 L 13, 74 Q 13, 74 13, 74 L 13, 78.8 Q 13.08,80 14,80.2 L 21, 82.24 Q 21, 82.24 21, 82.24 L 70, 96.5 Q 70, 96.5 70, 96.5 L 81, 99.7 Q 82,99.9 83,99 L 86.5,93.65 Q 87,93 87,92 L 87, 35 Q 87, 35 87, 35 L 87, 30 Q 87, 30 87, 30 L 87, 19.2 Q 87.02,18 86,17.8 L 19, 0.3 Q 18,0.1 17,1 Z"
       id="path6"
       inkscape:label="path2"
       sodipodi:nodetypes="cscccccccccccccsccccscccc" /></g><g
     id="layer2"><path
       d="M 23.2,24.74 Q 22,25 22,26 v 73.64 q 0.54,0.18 1,0.06 L 86,82.2 Q 86.92,82 87,80.8 V 7 q 0,0 0,0 z"
       id="path3"
       style="display:none;opacity:0.6;fill:#e6e6e6;stroke:#000000;stroke-width:0;stroke-dasharray:none;stroke-opacity:1"
       inkscape:label="frame1"
       inkscape:highlight-color="#000000" /><path
       d="M 1.5,5 Q 0,5 0,6.5 V 98 q 0,2 2,2 h 96 q 2,0 2,-2 V 6.5 Q 100,5 98.5,5 Z"
       id="path4"
       style="display:none;opacity:0.61;fill:#9dac93"
       inkscape:label="frame0" /><path
       d="m 13,7 c 0,0 0,0 0,0 v 73.8 q 0.08,1.2 1,1.4 l 63,17.5 q 0.46,0.12 1,-0.06 V 26 q 0,-1 -1.2,-1.26 z"
       id="path9"
       style="display:none;opacity:0.47;fill:#55d400"
       inkscape:label="frame5" /><path
       d="M 13.03,4.99 Q 13,5.1 13,5.2 v 75.6 q 0.08,1.2 1,1.4 l 65,17.5 q 0.46,0.12 1,-0.06 V 24 q 0,-1 -1,-1.26 z"
       id="path12"
       style="display:inline;opacity:0.47;fill:#00ffff"
       inkscape:label="frame2" /></g><g
     inkscape:groupmode="layer"
     id="layer3"
     inkscape:label="Layer 3"
     style="display:inline"><path
       d="M 14.2,17.74 Q 13,18 13,19 l 10.2,5.74 Q 22,25 22,26 Z"
       style="opacity:0.26;fill:#cccccc"
       id="path2"
       inkscape:label="depth5" /><path
       d="M 14.2,17.74 Q 13,18 13,19 l 10.2,5.74 Q 22,25 22,26 Z"
       style="opacity:0.26;fill:#cccccc"
       id="path15"
       inkscape:label="depth5" /></g></svg>
