<?xml version="1.0" encoding="UTF-8" standalone="no"?>
<!-- Created with Inkscape (http://www.inkscape.org/) -->

<svg
   width="100"
   height="100"
   viewBox="0 0 100 100"
   version="1.1"
   id="svg1"
   xml:space="preserve"
   sodipodi:docname="animation3d_backup.svg"
   inkscape:version="1.4 (e7c3feb100, 2024-10-09)"
   xmlns:inkscape="http://www.inkscape.org/namespaces/inkscape"
   xmlns:sodipodi="http://sodipodi.sourceforge.net/DTD/sodipodi-0.dtd"
   xmlns="http://www.w3.org/2000/svg"
   xmlns:svg="http://www.w3.org/2000/svg"><sodipodi:namedview
     id="namedview1"
     pagecolor="#ffffff"
     bordercolor="#000000"
     borderopacity="0.25"
     inkscape:showpageshadow="2"
     inkscape:pageopacity="0.0"
     inkscape:pagecheckerboard="0"
     inkscape:deskcolor="#d1d1d1"
     showgrid="true"
     showguides="true"
     inkscape:zoom="12.29"
     inkscape:cx="51.545972"
     inkscape:cy="54.841334"
     inkscape:window-width="2540"
     inkscape:window-height="1381"
     inkscape:window-x="0"
     inkscape:window-y="0"
     inkscape:window-maximized="1"
     inkscape:current-layer="layer1"><inkscape:grid
       id="grid1"
       units="px"
       originx="0"
       originy="0"
       spacingx="1"
       spacingy="1"
       empcolor="#0099e5"
       empopacity="0.30196078"
       color="#0099e5"
       opacity="0.14901961"
       empspacing="1"
       enabled="true"
       visible="true" /><sodipodi:guide
       position="86.666163,93.46228"
       orientation="0.58238402,0.81291381"
       id="guide1"
       inkscape:locked="false" /><sodipodi:guide
       position="56.959781,84.695655"
       orientation="-0.26679186,0.96375417"
       id="guide2"
       inkscape:locked="false" /><sodipodi:guide
       position="22.213181,-3.8242473"
       orientation="1,0"
       id="guide3"
       inkscape:locked="false" /><sodipodi:guide
       position="77.888635,51.523954"
       orientation="1,0"
       id="guide4"
       inkscape:locked="false" /><sodipodi:guide
       position="14.317258,6.8169082"
       orientation="0,-1"
       id="guide5"
       inkscape:locked="false" /><sodipodi:guide
       position="87.266413,92.995098"
       orientation="0,-1"
       id="guide6"
       inkscape:locked="false" /><sodipodi:guide
       position="85.966121,17.763671"
       orientation="0.2674726,-0.96356547"
       id="guide7"
       inkscape:locked="false" /><sodipodi:guide
       position="88.476404,81.489015"
       orientation="0,-1"
       id="guide8"
       inkscape:locked="false" /><sodipodi:guide
       position="39.336796,17.951587"
       orientation="0,-1"
       id="guide9"
       inkscape:locked="false" /></sodipodi:namedview><defs
     id="defs1" /><g
     id="layer1"><path
       d="M 1, 5 C 0.5,5.5 0,6 0,7 L 0, 10 C 0, 10 0, 10 0, 10 L 0, 90 C 0, 90 0, 90 0,90 L 0,98 C 0 , 99 0,100 2, 100 L 10, 100 C 10,100 10,100 10, 100 L 90, 100 C 90, 100 90, 100 90,100 L 98,100 C 99, 100 100,100 100, 98 L 100, 90 C 100, 90 100, 90 100, 90 L 100, 10 C 100, 10 100, 10 100, 10 L 100, 7 C 100,6 99.5, 5.5 99,5 L 94, 0.5 C 93.5,0.15 93,0 92,0 L 8, 0 C 7,0 6.5,0.15 6,0.5 Z"
       id="path0"
       style="display:inline;fill:#cccccc;stroke-width:0.833333" /><path
       style="display:inline;opacity:1;fill:#e9afaf;stroke-width:0.918642"
       d="M 13, 30 C 13,30 13,30 13,30 L 13, 35 C 13, 35 13, 35 13, 35 L 13, 92 C 13, 93 13.5,93.5 14,94 L 21, 99 C 22, 100 23,99.7 23,99.7 L 30.1, 97.6 C 30.1, 97.6 30.1, 97.6 30.1, 97.6 L 78.9, 84 C 78.9, 84 78.9, 84 78.9, 84 L 86, 82.2 C 86,82.2 87,82 87,80.8 L 87, 74 C 87, 74 87, 74 87, 74 L 87, 18.2 C 87, 18.2 87, 18.2 87, 18.2 L 87, 7 C 87,6.8 86.7,6.5 86,6 L 79, 1 C 78, 0 77,0.3 77,0.3 L 14, 17.7 C 13, 18 13, 19 13,20 Z"
       id="path1" /><path
       style="display:inline;opacity:1;fill:#00ff00;stroke-width:0.918642"
       d="M 14, 6 C 13.3,6.5 13,6.8 13,7 L 13, 18.2 C 13, 18.2 13, 18.2 13, 18.2 L 13, 74 C 13, 74 13, 74 13, 74 L 13, 80.8 C 13,80.8 13,82 14,82.2 L 21.1, 84 C 21.1, 84 21.1, 84 21.1, 84 L 69.9, 97.6 C 69.9, 97.6 69.9, 97.6 69.9, 97.6 L 77, 99.7 C 77,99.7 78,100 79,99 L 86,94 C 86.5,93.5 87,93 87,92 L 87, 35 C 87, 35 87, 35 87, 35 L 87, 30 C 87, 30 87, 30 87, 30 L 87, 20 C 87,19 87,18 86,17.7 L 23, 0.3 C 23,0.3 22,0 21,1 Z"
       id="path5"
       sodipodi:insensitive="true" /></g><g
     id="layer2"><path
       d="M 23,24.8 C 22.5,24.9 22,25 22,26 v 74 L 87,82.2 V 7 c 0,0 0,0 0,0 z"
       id="path3"
       style="display:none"
       inkscape:label="frame1" /><path
       d="M 0.5,5.5 C 0,6 0,6.5 0,7 v 93 H 100 V 7 c 0,-0.5 0,-1 -0.5,-1.5 z"
       id="path4"
       style="display:none;fill:#ccffaa"
       inkscape:label="frame0" /><path
       d="M 13,7 C 13,7 13,7 13,7 L 13, 82.2 L 78, 100 L 78, 26 C 78,25 77.5,24.9 77,24.8 Z"
       id="path9"
       style="display:inline"
       inkscape:label="frame5" /></g></svg>
