{
	"asset":{
		"generator":"Khronos glTF Blender I/O v4.3.47",
		"version":"2.0"
	},
	"extensionsUsed":[
		"KHR_texture_transform"
	],
	"extensionsRequired":[
		"KHR_texture_transform"
	],
	"scene":0,
	"scenes":[
		{
			"name":"Scene",
			"nodes":[
				0,
				1,
				2,
				3,
				4,
				5,
				6
			]
		}
	],
	"nodes":[
		{
			"mesh":0,
			"name":"floor",
			"scale":[
				2.5,
				1.9859079122543335,
				1.9859079122543335
			]
		},
		{
			"mesh":1,
			"name":"wall2",
			"rotation":[
				0.7071068286895752,
				0,
				0,
				0.7071068286895752
			],
			"scale":[
				2.6999998092651367,
				1,
				1.100000023841858
			],
			"translation":[
				-0.012386918067932129,
				1.0016931295394897,
				-1.9885773658752441
			]
		},
		{
			"mesh":2,
			"name":"wall.1",
			"rotation":[
				0.5,
				0.5,
				-0.5,
				0.5
			],
			"scale":[
				1.9771900177001953,
				1,
				1.0999999046325684
			],
			"translation":[
				-2.5085909366607666,
				1.0016931295394897,
				-0.013444185256958008
			]
		},
		{
			"mesh":3,
			"name":"wall3",
			"rotation":[
				0.5,
				0.5,
				-0.5,
				0.5
			],
			"scale":[
				1.9771900177001953,
				1,
				1.100000023841858
			],
			"translation":[
				2.483926296234131,
				1.0016931295394897,
				-0.013444185256958008
			]
		},
		{
			"mesh":4,
			"name":"Plane",
			"rotation":[
				0.7071068286895752,
				0,
				0,
				0.7071068286895752
			],
			"scale":[
				2,
				1,
				0.30000001192092896
			],
			"translation":[
				0.7847992181777954,
				2.655005693435669,
				0.11042332649230957
			]
		},
		{
			"mesh":5,
			"name":"Plane.001",
			"rotation":[
				0.5,
				0.5,
				-0.5,
				0.5
			],
			"scale":[
				1.6000003814697266,
				1,
				0.30000001192092896
			],
			"translation":[
				-0.398311585187912,
				2.6620962619781494,
				-0.5985293388366699
			]
		},
		{
			"mesh":6,
			"name":"Plane.002",
			"rotation":[
				0.5,
				0.5,
				-0.5,
				0.5
			],
			"scale":[
				1.6000003814697266,
				1,
				0.30000001192092896
			],
			"translation":[
				4.513129234313965,
				2.6620962619781494,
				-0.5985293388366699
			]
		}
	],
	"materials":[
		{
			"doubleSided":true,
			"name":"Material.004",
			"pbrMetallicRoughness":{
				"baseColorTexture":{
					"extensions":{
						"KHR_texture_transform":{
							"offset":[
								0,
								-0.8000001907348633
							],
							"scale":[
								2.6999995708465576,
								1.8000001907348633
							]
						}
					},
					"index":0
				},
				"metallicFactor":0,
				"roughnessFactor":0.5
			}
		},
		{
			"doubleSided":true,
			"name":"wallpaper2",
			"pbrMetallicRoughness":{
				"baseColorTexture":{
					"extensions":{
						"KHR_texture_transform":{
							"offset":[
								0,
								-1.9999992847442627
							],
							"scale":[
								3.899998426437378,
								2.9999992847442627
							]
						}
					},
					"index":1
				},
				"metallicFactor":0,
				"roughnessFactor":0.5
			}
		},
		{
			"doubleSided":true,
			"name":"wallpaper1",
			"pbrMetallicRoughness":{
				"baseColorTexture":{
					"extensions":{
						"KHR_texture_transform":{
							"offset":[
								0,
								-1.9999992847442627
							],
							"scale":[
								3.899998426437378,
								2.9999992847442627
							]
						}
					},
					"index":2
				},
				"metallicFactor":0,
				"roughnessFactor":0.5
			}
		},
		{
			"doubleSided":true,
			"name":"wallpaper3",
			"pbrMetallicRoughness":{
				"baseColorTexture":{
					"extensions":{
						"KHR_texture_transform":{
							"offset":[
								0,
								-1.9999992847442627
							],
							"scale":[
								3.899998426437378,
								2.9999992847442627
							]
						}
					},
					"index":3
				},
				"metallicFactor":0,
				"roughnessFactor":0.5
			}
		},
		{
			"doubleSided":true,
			"name":"Material.001",
			"pbrMetallicRoughness":{
				"baseColorTexture":{
					"extensions":{
						"KHR_texture_transform":{
							"scale":[
								2.9999992847442627,
								1
							]
						}
					},
					"index":4
				},
				"metallicFactor":0,
				"roughnessFactor":0.5
			}
		},
		{
			"doubleSided":true,
			"name":"Material.002",
			"pbrMetallicRoughness":{
				"baseColorTexture":{
					"extensions":{
						"KHR_texture_transform":{
							"scale":[
								2.9999992847442627,
								1
							]
						}
					},
					"index":5
				},
				"metallicFactor":0,
				"roughnessFactor":0.5
			}
		},
		{
			"doubleSided":true,
			"name":"Material.003",
			"pbrMetallicRoughness":{
				"baseColorTexture":{
					"extensions":{
						"KHR_texture_transform":{
							"scale":[
								2.9999992847442627,
								1
							]
						}
					},
					"index":6
				},
				"metallicFactor":0,
				"roughnessFactor":0.5
			}
		}
	],
	"meshes":[
		{
			"name":"Plane.001",
			"primitives":[
				{
					"attributes":{
						"POSITION":0,
						"NORMAL":1,
						"TEXCOORD_0":2
					},
					"indices":3,
					"material":0
				}
			]
		},
		{
			"name":"Plane.002",
			"primitives":[
				{
					"attributes":{
						"POSITION":4,
						"NORMAL":5,
						"TEXCOORD_0":6
					},
					"indices":7,
					"material":1
				}
			]
		},
		{
			"name":"Plane.003",
			"primitives":[
				{
					"attributes":{
						"POSITION":8,
						"NORMAL":9,
						"TEXCOORD_0":10
					},
					"indices":3,
					"material":2
				}
			]
		},
		{
			"name":"Plane.004",
			"primitives":[
				{
					"attributes":{
						"POSITION":11,
						"NORMAL":12,
						"TEXCOORD_0":13
					},
					"indices":3,
					"material":3
				}
			]
		},
		{
			"name":"Plane",
			"primitives":[
				{
					"attributes":{
						"POSITION":14,
						"NORMAL":15,
						"TEXCOORD_0":16
					},
					"indices":3,
					"material":4
				}
			]
		},
		{
			"name":"Plane.005",
			"primitives":[
				{
					"attributes":{
						"POSITION":17,
						"NORMAL":18,
						"TEXCOORD_0":19
					},
					"indices":3,
					"material":5
				}
			]
		},
		{
			"name":"Plane.006",
			"primitives":[
				{
					"attributes":{
						"POSITION":20,
						"NORMAL":21,
						"TEXCOORD_0":22
					},
					"indices":3,
					"material":6
				}
			]
		}
	],
	"textures":[
		{
			"sampler":0,
			"source":0
		},
		{
			"sampler":0,
			"source":1
		},
		{
			"sampler":0,
			"source":1
		},
		{
			"sampler":0,
			"source":1
		},
		{
			"sampler":0,
			"source":2
		},
		{
			"sampler":0,
			"source":2
		},
		{
			"sampler":0,
			"source":2
		}
	],
	"images":[
		{
			"mimeType":"image/jpeg",
			"name":"woodenfloor",
			"uri":"woodenfloor.jpg"
		},
		{
			"mimeType":"image/png",
			"name":"tapet",
			"uri":"tapet.png"
		},
		{
			"mimeType":"image/png",
			"name":"treepanel",
			"uri":"treepanel.png"
		}
	],
	"accessors":[
		{
			"bufferView":0,
			"componentType":5126,
			"count":24,
			"max":[
				1,
				0,
				1
			],
			"min":[
				-1,
				-0.04999999701976776,
				-1
			],
			"type":"VEC3"
		},
		{
			"bufferView":1,
			"componentType":5126,
			"count":24,
			"type":"VEC3"
		},
		{
			"bufferView":2,
			"componentType":5126,
			"count":24,
			"type":"VEC2"
		},
		{
			"bufferView":3,
			"componentType":5123,
			"count":36,
			"type":"SCALAR"
		},
		{
			"bufferView":4,
			"componentType":5126,
			"count":86,
			"max":[
				1,
				-1.1920928955078125e-07,
				1
			],
			"min":[
				-1,
				-0.20000013709068298,
				-1
			],
			"type":"VEC3"
		},
		{
			"bufferView":5,
			"componentType":5126,
			"count":86,
			"type":"VEC3"
		},
		{
			"bufferView":6,
			"componentType":5126,
			"count":86,
			"type":"VEC2"
		},
		{
			"bufferView":7,
			"componentType":5123,
			"count":228,
			"type":"SCALAR"
		},
		{
			"bufferView":8,
			"componentType":5126,
			"count":24,
			"max":[
				1,
				0,
				1
			],
			"min":[
				-1,
				-0.20000000298023224,
				-1
			],
			"type":"VEC3"
		},
		{
			"bufferView":9,
			"componentType":5126,
			"count":24,
			"type":"VEC3"
		},
		{
			"bufferView":10,
			"componentType":5126,
			"count":24,
			"type":"VEC2"
		},
		{
			"bufferView":11,
			"componentType":5126,
			"count":24,
			"max":[
				1,
				0.20000000298023224,
				1
			],
			"min":[
				-1,
				0,
				-1
			],
			"type":"VEC3"
		},
		{
			"bufferView":12,
			"componentType":5126,
			"count":24,
			"type":"VEC3"
		},
		{
			"bufferView":13,
			"componentType":5126,
			"count":24,
			"type":"VEC2"
		},
		{
			"bufferView":14,
			"componentType":5126,
			"count":24,
			"max":[
				0.8226432800292969,
				-2.0347275733947754,
				8.852052688598633
			],
			"min":[
				-1.6190882921218872,
				-2.0947275161743164,
				6.852052211761475
			],
			"type":"VEC3"
		},
		{
			"bufferView":15,
			"componentType":5126,
			"count":24,
			"type":"VEC3"
		},
		{
			"bufferView":16,
			"componentType":5126,
			"count":24,
			"type":"VEC2"
		},
		{
			"bufferView":17,
			"componentType":5126,
			"count":24,
			"max":[
				0.8226432800292969,
				-2.0347275733947754,
				8.852052688598633
			],
			"min":[
				-1.6190882921218872,
				-2.0947275161743164,
				6.852052211761475
			],
			"type":"VEC3"
		},
		{
			"bufferView":18,
			"componentType":5126,
			"count":24,
			"type":"VEC3"
		},
		{
			"bufferView":19,
			"componentType":5126,
			"count":24,
			"type":"VEC2"
		},
		{
			"bufferView":20,
			"componentType":5126,
			"count":24,
			"max":[
				0.8226432800292969,
				-2.0347275733947754,
				8.852052688598633
			],
			"min":[
				-1.6190882921218872,
				-2.0947275161743164,
				6.852052211761475
			],
			"type":"VEC3"
		},
		{
			"bufferView":21,
			"componentType":5126,
			"count":24,
			"type":"VEC3"
		},
		{
			"bufferView":22,
			"componentType":5126,
			"count":24,
			"type":"VEC2"
		}
	],
	"bufferViews":[
		{
			"buffer":0,
			"byteLength":288,
			"byteOffset":0,
			"target":34962
		},
		{
			"buffer":0,
			"byteLength":288,
			"byteOffset":288,
			"target":34962
		},
		{
			"buffer":0,
			"byteLength":192,
			"byteOffset":576,
			"target":34962
		},
		{
			"buffer":0,
			"byteLength":72,
			"byteOffset":768,
			"target":34963
		},
		{
			"buffer":0,
			"byteLength":1032,
			"byteOffset":840,
			"target":34962
		},
		{
			"buffer":0,
			"byteLength":1032,
			"byteOffset":1872,
			"target":34962
		},
		{
			"buffer":0,
			"byteLength":688,
			"byteOffset":2904,
			"target":34962
		},
		{
			"buffer":0,
			"byteLength":456,
			"byteOffset":3592,
			"target":34963
		},
		{
			"buffer":0,
			"byteLength":288,
			"byteOffset":4048,
			"target":34962
		},
		{
			"buffer":0,
			"byteLength":288,
			"byteOffset":4336,
			"target":34962
		},
		{
			"buffer":0,
			"byteLength":192,
			"byteOffset":4624,
			"target":34962
		},
		{
			"buffer":0,
			"byteLength":288,
			"byteOffset":4816,
			"target":34962
		},
		{
			"buffer":0,
			"byteLength":288,
			"byteOffset":5104,
			"target":34962
		},
		{
			"buffer":0,
			"byteLength":192,
			"byteOffset":5392,
			"target":34962
		},
		{
			"buffer":0,
			"byteLength":288,
			"byteOffset":5584,
			"target":34962
		},
		{
			"buffer":0,
			"byteLength":288,
			"byteOffset":5872,
			"target":34962
		},
		{
			"buffer":0,
			"byteLength":192,
			"byteOffset":6160,
			"target":34962
		},
		{
			"buffer":0,
			"byteLength":288,
			"byteOffset":6352,
			"target":34962
		},
		{
			"buffer":0,
			"byteLength":288,
			"byteOffset":6640,
			"target":34962
		},
		{
			"buffer":0,
			"byteLength":192,
			"byteOffset":6928,
			"target":34962
		},
		{
			"buffer":0,
			"byteLength":288,
			"byteOffset":7120,
			"target":34962
		},
		{
			"buffer":0,
			"byteLength":288,
			"byteOffset":7408,
			"target":34962
		},
		{
			"buffer":0,
			"byteLength":192,
			"byteOffset":7696,
			"target":34962
		}
	],
	"samplers":[
		{
			"magFilter":9729,
			"minFilter":9987
		}
	],
	"buffers":[
		{
			"byteLength":7888,
			"uri":"room.bin"
		}
	]
}
