<?xml version="1.0" encoding="UTF-8" standalone="no"?>
<!-- Created with Inkscape (http://www.inkscape.org/) -->

<svg
   width="100"
   height="100"
   viewBox="0 0 100 100"
   version="1.1"
   id="svg1"
   xmlns="http://www.w3.org/2000/svg"
   xmlns:svg="http://www.w3.org/2000/svg">
  <defs
     id="defs1" />
  <g
     id="layer1">
    <path
       d="m 0,5 v 80.5 a 6.8352055,6.8352055 73.690378 0 0 1.0781074,3.684543 l 5.8437852,9.130914 A 3.6545315,3.6545315 28.690378 0 0 10,100 h 80 a 3.6545315,3.6545315 151.30962 0 0 3.078107,-1.684543 l 5.843786,-9.130914 A 6.8352055,6.8352055 106.30962 0 0 100,85.5 V 5 A 2.5367936,2.5367936 51.747867 0 0 98.055225,2.5332541 L 89.444775,0.4667459 A 16.903307,16.903307 6.7478666 0 0 85.5,0 h -71 A 16.903307,16.903307 173.25213 0 0 10.555225,0.4667459 L 1.9447746,2.5332541 A 2.5367936,2.5367936 128.25213 0 0 0,5 Z"
       id="path2"
       style="stroke-width:0.833333" />
  </g>
</svg>
